<svg xmlns="http://www.w3.org/2000/svg" xmlns:xlink="http://www.w3.org/1999/xlink" width="500" zoomAndPan="magnify" viewBox="0 0 375 374.999991" height="500" preserveAspectRatio="xMidYMid meet" version="1.0"><defs><g/><clipPath id="9e47829c7a"><path d="M 42.835938 198.453125 L 64.1875 198.453125 L 64.1875 203 L 42.835938 203 Z M 42.835938 198.453125 " clip-rule="nonzero"/></clipPath><clipPath id="987e548257"><path d="M 64.1875 199.203125 L 64.1875 202.25 C 64.1875 202.664062 63.851562 203 63.4375 203 L 43.585938 203 C 43.171875 203 42.835938 202.664062 42.835938 202.25 L 42.835938 199.203125 C 42.835938 198.789062 43.171875 198.453125 43.585938 198.453125 L 63.4375 198.453125 C 63.851562 198.453125 64.1875 198.789062 64.1875 199.203125 Z M 64.1875 199.203125 " clip-rule="nonzero"/></clipPath><clipPath id="ea2b5bcb7f"><path d="M 42.507812 198.929688 L 63.636719 198.929688 L 63.636719 202.523438 L 42.507812 202.523438 Z M 42.507812 198.929688 " clip-rule="nonzero"/></clipPath><clipPath id="653a000f43"><path d="M 63.636719 199.679688 L 63.636719 201.773438 C 63.636719 202.1875 63.300781 202.523438 62.886719 202.523438 L 43.265625 202.523438 C 42.851562 202.523438 42.515625 202.1875 42.515625 201.773438 L 42.515625 199.679688 C 42.515625 199.265625 42.851562 198.929688 43.265625 198.929688 L 62.886719 198.929688 C 63.300781 198.929688 63.636719 199.265625 63.636719 199.679688 Z M 63.636719 199.679688 " clip-rule="nonzero"/></clipPath><clipPath id="0c91fb41df"><path d="M 37.5 189.507812 L 58.851562 189.507812 L 58.851562 194.054688 L 37.5 194.054688 Z M 37.5 189.507812 " clip-rule="nonzero"/></clipPath><clipPath id="147b9f4186"><path d="M 37.5 193.304688 L 37.5 190.257812 C 37.5 189.84375 37.835938 189.507812 38.25 189.507812 L 58.101562 189.507812 C 58.515625 189.507812 58.851562 189.84375 58.851562 190.257812 L 58.851562 193.304688 C 58.851562 193.71875 58.515625 194.054688 58.101562 194.054688 L 38.25 194.054688 C 37.835938 194.054688 37.5 193.71875 37.5 193.304688 Z M 37.5 193.304688 " clip-rule="nonzero"/></clipPath><clipPath id="70ac51ddd4"><path d="M 38.050781 189.984375 L 59.179688 189.984375 L 59.179688 193.582031 L 38.050781 193.582031 Z M 38.050781 189.984375 " clip-rule="nonzero"/></clipPath><clipPath id="60641f5431"><path d="M 38.050781 192.832031 L 38.050781 190.734375 C 38.050781 190.320312 38.386719 189.984375 38.800781 189.984375 L 58.421875 189.984375 C 58.835938 189.984375 59.171875 190.320312 59.171875 190.734375 L 59.171875 192.832031 C 59.171875 193.246094 58.835938 193.582031 58.421875 193.582031 L 38.800781 193.582031 C 38.386719 193.582031 38.050781 193.246094 38.050781 192.832031 Z M 38.050781 192.832031 " clip-rule="nonzero"/></clipPath><clipPath id="7d826e7be4"><path d="M 40.851562 184.964844 L 62.203125 184.964844 L 62.203125 189.511719 L 40.851562 189.511719 Z M 40.851562 184.964844 " clip-rule="nonzero"/></clipPath><clipPath id="5563e5adb3"><path d="M 62.203125 185.714844 L 62.203125 188.761719 C 62.203125 189.175781 61.867188 189.511719 61.453125 189.511719 L 41.601562 189.511719 C 41.1875 189.511719 40.851562 189.175781 40.851562 188.761719 L 40.851562 185.714844 C 40.851562 185.300781 41.1875 184.964844 41.601562 184.964844 L 61.453125 184.964844 C 61.867188 184.964844 62.203125 185.300781 62.203125 185.714844 Z M 62.203125 185.714844 " clip-rule="nonzero"/></clipPath><clipPath id="907f83cdb4"><path d="M 40.523438 185.441406 L 61.652344 185.441406 L 61.652344 189.035156 L 40.523438 189.035156 Z M 40.523438 185.441406 " clip-rule="nonzero"/></clipPath><clipPath id="55400c99d2"><path d="M 61.652344 186.191406 L 61.652344 188.285156 C 61.652344 188.699219 61.316406 189.035156 60.902344 189.035156 L 41.28125 189.035156 C 40.867188 189.035156 40.53125 188.699219 40.53125 188.285156 L 40.53125 186.191406 C 40.53125 185.777344 40.867188 185.441406 41.28125 185.441406 L 60.902344 185.441406 C 61.316406 185.441406 61.652344 185.777344 61.652344 186.191406 Z M 61.652344 186.191406 " clip-rule="nonzero"/></clipPath><clipPath id="5454707741"><path d="M 44.425781 194.054688 L 65.773438 194.054688 L 65.773438 198.605469 L 44.425781 198.605469 Z M 44.425781 194.054688 " clip-rule="nonzero"/></clipPath><clipPath id="a352a38bf1"><path d="M 44.425781 197.855469 L 44.425781 194.804688 C 44.425781 194.390625 44.761719 194.054688 45.175781 194.054688 L 65.023438 194.054688 C 65.4375 194.054688 65.773438 194.390625 65.773438 194.804688 L 65.773438 197.855469 C 65.773438 198.269531 65.4375 198.605469 65.023438 198.605469 L 45.175781 198.605469 C 44.761719 198.605469 44.425781 198.269531 44.425781 197.855469 Z M 44.425781 197.855469 " clip-rule="nonzero"/></clipPath><clipPath id="350679e15e"><path d="M 44.976562 194.53125 L 66.105469 194.53125 L 66.105469 198.128906 L 44.976562 198.128906 Z M 44.976562 194.53125 " clip-rule="nonzero"/></clipPath><clipPath id="0df92d08a6"><path d="M 44.976562 197.378906 L 44.976562 195.28125 C 44.976562 194.867188 45.3125 194.53125 45.726562 194.53125 L 65.34375 194.53125 C 65.761719 194.53125 66.09375 194.867188 66.09375 195.28125 L 66.09375 197.378906 C 66.09375 197.792969 65.761719 198.128906 65.34375 198.128906 L 45.726562 198.128906 C 45.3125 198.128906 44.976562 197.792969 44.976562 197.378906 Z M 44.976562 197.378906 " clip-rule="nonzero"/></clipPath><clipPath id="10e117f975"><path d="M 43.15625 174 L 53.886719 174 L 53.886719 185.078125 L 43.15625 185.078125 Z M 43.15625 174 " clip-rule="nonzero"/></clipPath><clipPath id="b861fb41a1"><path d="M 48 173 L 53.886719 173 L 53.886719 175 L 48 175 Z M 48 173 " clip-rule="nonzero"/></clipPath><clipPath id="d50a3581a8"><path d="M 44 175 L 47 175 L 47 178 L 44 178 Z M 44 175 " clip-rule="nonzero"/></clipPath><clipPath id="cc0dfaa67c"><path d="M 43.671875 176.238281 L 46.242188 174.765625 L 47.109375 176.28125 L 44.539062 177.753906 Z M 43.671875 176.238281 " clip-rule="nonzero"/></clipPath><clipPath id="0b4f63a2b0"><path d="M 44.953125 175.503906 C 44.246094 175.910156 43.867188 176.578125 44.105469 176.996094 C 44.34375 177.414062 45.113281 177.425781 45.824219 177.019531 C 46.53125 176.613281 46.910156 175.941406 46.671875 175.523438 C 46.429688 175.105469 45.660156 175.097656 44.953125 175.503906 Z M 44.953125 175.503906 " clip-rule="nonzero"/></clipPath></defs><g fill="#ff5757" fill-opacity="0.4"><g transform="translate(65.486901, 204.664309)"><g><path d="M 14.921875 -28.90625 C 16.992188 -28.90625 18.765625 -28.523438 20.234375 -27.765625 C 21.703125 -27.003906 22.8125 -25.941406 23.5625 -24.578125 C 24.3125 -23.210938 24.6875 -21.628906 24.6875 -19.828125 C 24.6875 -18.023438 24.3125 -16.441406 23.5625 -15.078125 C 22.8125 -13.722656 21.703125 -12.664062 20.234375 -11.90625 C 18.765625 -11.144531 16.992188 -10.765625 14.921875 -10.765625 L 9.46875 -10.765625 L 9.46875 0 L 3.75 0 L 3.75 -28.90625 Z M 14.171875 -15.296875 C 17.347656 -15.296875 18.9375 -16.804688 18.9375 -19.828125 C 18.9375 -22.859375 17.347656 -24.375 14.171875 -24.375 L 9.46875 -24.375 L 9.46875 -15.296875 Z M 14.171875 -15.296875 "/></g></g></g><g fill="#ff5757" fill-opacity="0.4"><g transform="translate(91.081774, 204.664309)"><g><path d="M 21.546875 -9.671875 L 7.53125 -9.671875 C 7.6875 -7.765625 8.222656 -6.378906 9.140625 -5.515625 C 10.066406 -4.660156 11.328125 -4.234375 12.921875 -4.234375 C 14.179688 -4.234375 15.195312 -4.46875 15.96875 -4.9375 C 16.75 -5.40625 17.375 -6.113281 17.84375 -7.0625 L 18.265625 -7.0625 L 21.90625 -4.71875 C 21.1875 -3.195312 20.109375 -1.957031 18.671875 -1 C 17.242188 -0.0507812 15.328125 0.421875 12.921875 0.421875 C 10.671875 0.421875 8.722656 -0.00390625 7.078125 -0.859375 C 5.441406 -1.722656 4.175781 -3 3.28125 -4.6875 C 2.394531 -6.382812 1.953125 -8.453125 1.953125 -10.890625 C 1.953125 -13.367188 2.421875 -15.457031 3.359375 -17.15625 C 4.296875 -18.851562 5.5625 -20.117188 7.15625 -20.953125 C 8.75 -21.796875 10.539062 -22.21875 12.53125 -22.21875 C 15.613281 -22.21875 17.972656 -21.398438 19.609375 -19.765625 C 21.253906 -18.128906 22.078125 -15.734375 22.078125 -12.578125 C 22.078125 -11.429688 22.039062 -10.539062 21.96875 -9.90625 Z M 16.84375 -13.203125 C 16.789062 -14.867188 16.40625 -16.078125 15.6875 -16.828125 C 14.96875 -17.585938 13.914062 -17.96875 12.53125 -17.96875 C 9.757812 -17.96875 8.132812 -16.378906 7.65625 -13.203125 Z M 16.84375 -13.203125 "/></g></g></g><g fill="#ff5757" fill-opacity="0.4"><g transform="translate(113.968986, 204.664309)"><g><path d="M 10.765625 0.421875 C 9.046875 0.421875 7.519531 0.00390625 6.1875 -0.828125 C 4.863281 -1.671875 3.828125 -2.9375 3.078125 -4.625 C 2.328125 -6.320312 1.953125 -8.410156 1.953125 -10.890625 C 1.953125 -13.378906 2.335938 -15.46875 3.109375 -17.15625 C 3.878906 -18.851562 4.945312 -20.117188 6.3125 -20.953125 C 7.675781 -21.796875 9.253906 -22.21875 11.046875 -22.21875 C 12.410156 -22.21875 13.585938 -21.984375 14.578125 -21.515625 C 15.578125 -21.046875 16.414062 -20.316406 17.09375 -19.328125 L 17.515625 -19.4375 L 17.515625 -30.5625 L 22.984375 -30.5625 L 22.984375 0 L 17.515625 0 L 17.515625 -2.828125 L 17.09375 -2.90625 C 16.488281 -1.875 15.660156 -1.0625 14.609375 -0.46875 C 13.554688 0.125 12.273438 0.421875 10.765625 0.421875 Z M 12.546875 -4.234375 C 14.085938 -4.234375 15.304688 -4.78125 16.203125 -5.875 C 17.097656 -6.976562 17.546875 -8.648438 17.546875 -10.890625 C 17.546875 -13.128906 17.097656 -14.800781 16.203125 -15.90625 C 15.304688 -17.019531 14.085938 -17.578125 12.546875 -17.578125 C 10.941406 -17.578125 9.710938 -17.035156 8.859375 -15.953125 C 8.015625 -14.878906 7.59375 -13.191406 7.59375 -10.890625 C 7.59375 -8.597656 8.015625 -6.914062 8.859375 -5.84375 C 9.710938 -4.769531 10.941406 -4.234375 12.546875 -4.234375 Z M 12.546875 -4.234375 "/></g></g></g><g fill="#ff5757" fill-opacity="0.4"><g transform="translate(139.287167, 204.664309)"><g><path d="M 9.984375 0.421875 C 7.535156 0.421875 5.726562 -0.242188 4.5625 -1.578125 C 3.394531 -2.921875 2.8125 -4.847656 2.8125 -7.359375 L 2.8125 -21.796875 L 8.28125 -21.796875 L 8.28125 -8.046875 C 8.28125 -6.710938 8.566406 -5.738281 9.140625 -5.125 C 9.710938 -4.507812 10.597656 -4.203125 11.796875 -4.203125 C 13.316406 -4.203125 14.5 -4.703125 15.34375 -5.703125 C 16.1875 -6.703125 16.609375 -8.265625 16.609375 -10.390625 L 16.609375 -21.796875 L 22.078125 -21.796875 L 22.078125 0 L 16.828125 0 L 16.828125 -3.203125 L 16.40625 -3.296875 C 15.707031 -2.046875 14.851562 -1.113281 13.84375 -0.5 C 12.832031 0.113281 11.546875 0.421875 9.984375 0.421875 Z M 9.984375 0.421875 "/></g></g></g><g fill="#ff5757" fill-opacity="0.4"><g transform="translate(163.6962, 204.664309)"><g><path d="M 9.046875 0.421875 C 7.085938 0.421875 5.585938 -0.109375 4.546875 -1.171875 C 3.515625 -2.234375 3 -3.847656 3 -6.015625 L 3 -30.5625 L 8.484375 -30.5625 L 8.484375 -6.234375 C 8.484375 -4.898438 9.035156 -4.234375 10.140625 -4.234375 C 10.453125 -4.234375 10.789062 -4.285156 11.15625 -4.390625 L 11.421875 -4.3125 L 11.921875 -0.09375 C 11.617188 0.0625 11.21875 0.1875 10.71875 0.28125 C 10.21875 0.375 9.660156 0.421875 9.046875 0.421875 Z M 9.046875 0.421875 "/></g></g></g><g fill="#ff5757" fill-opacity="0.4"><g transform="translate(175.41678, 204.664309)"><g><path d="M 5.875 -24.40625 C 4.882812 -24.40625 4.078125 -24.707031 3.453125 -25.3125 C 2.835938 -25.914062 2.53125 -26.691406 2.53125 -27.640625 C 2.53125 -28.566406 2.835938 -29.332031 3.453125 -29.9375 C 4.078125 -30.539062 4.882812 -30.84375 5.875 -30.84375 C 6.53125 -30.84375 7.113281 -30.703125 7.625 -30.421875 C 8.144531 -30.140625 8.546875 -29.757812 8.828125 -29.28125 C 9.109375 -28.800781 9.25 -28.253906 9.25 -27.640625 C 9.25 -27.015625 9.109375 -26.457031 8.828125 -25.96875 C 8.546875 -25.488281 8.144531 -25.109375 7.625 -24.828125 C 7.113281 -24.546875 6.53125 -24.40625 5.875 -24.40625 Z M 3.140625 0 L 3.140625 -21.796875 L 8.625 -21.796875 L 8.625 0 Z M 3.140625 0 "/></g></g></g><g fill="#ff5757" fill-opacity="0.4"><g transform="translate(186.346803, 204.664309)"><g><path d="M 12.8125 0.421875 C 10.8125 0.421875 9.03125 0.175781 7.46875 -0.3125 C 5.90625 -0.8125 4.601562 -1.460938 3.5625 -2.265625 C 2.519531 -3.078125 1.722656 -3.960938 1.171875 -4.921875 L 4.3125 -8.75 L 4.796875 -8.75 C 5.671875 -7.457031 6.773438 -6.429688 8.109375 -5.671875 C 9.453125 -4.910156 11.019531 -4.53125 12.8125 -4.53125 C 14.34375 -4.53125 15.492188 -4.851562 16.265625 -5.5 C 17.046875 -6.144531 17.4375 -7.035156 17.4375 -8.171875 C 17.4375 -8.847656 17.3125 -9.414062 17.0625 -9.875 C 16.8125 -10.34375 16.394531 -10.738281 15.8125 -11.0625 C 15.226562 -11.394531 14.445312 -11.679688 13.46875 -11.921875 L 9.75 -12.765625 C 7.144531 -13.359375 5.207031 -14.34375 3.9375 -15.71875 C 2.664062 -17.101562 2.03125 -18.894531 2.03125 -21.09375 C 2.03125 -22.726562 2.4375 -24.164062 3.25 -25.40625 C 4.070312 -26.644531 5.265625 -27.601562 6.828125 -28.28125 C 8.390625 -28.96875 10.257812 -29.3125 12.4375 -29.3125 C 14.664062 -29.3125 16.570312 -29.019531 18.15625 -28.4375 C 19.738281 -27.851562 21.078125 -26.953125 22.171875 -25.734375 L 19.359375 -21.859375 L 18.859375 -21.859375 C 18.046875 -22.710938 17.109375 -23.351562 16.046875 -23.78125 C 14.992188 -24.21875 13.789062 -24.4375 12.4375 -24.4375 C 10.863281 -24.4375 9.664062 -24.15625 8.84375 -23.59375 C 8.03125 -23.039062 7.625 -22.28125 7.625 -21.3125 C 7.625 -20.40625 7.910156 -19.679688 8.484375 -19.140625 C 9.054688 -18.597656 10.050781 -18.175781 11.46875 -17.875 L 15.265625 -17.078125 C 18.066406 -16.484375 20.097656 -15.476562 21.359375 -14.0625 C 22.628906 -12.644531 23.265625 -10.796875 23.265625 -8.515625 C 23.265625 -6.710938 22.875 -5.140625 22.09375 -3.796875 C 21.320312 -2.460938 20.148438 -1.425781 18.578125 -0.6875 C 17.015625 0.0507812 15.09375 0.421875 12.8125 0.421875 Z M 12.8125 0.421875 "/></g></g></g><g fill="#ff5757" fill-opacity="0.4"><g transform="translate(210.360557, 204.664309)"><g><path d="M 21.546875 -9.671875 L 7.53125 -9.671875 C 7.6875 -7.765625 8.222656 -6.378906 9.140625 -5.515625 C 10.066406 -4.660156 11.328125 -4.234375 12.921875 -4.234375 C 14.179688 -4.234375 15.195312 -4.46875 15.96875 -4.9375 C 16.75 -5.40625 17.375 -6.113281 17.84375 -7.0625 L 18.265625 -7.0625 L 21.90625 -4.71875 C 21.1875 -3.195312 20.109375 -1.957031 18.671875 -1 C 17.242188 -0.0507812 15.328125 0.421875 12.921875 0.421875 C 10.671875 0.421875 8.722656 -0.00390625 7.078125 -0.859375 C 5.441406 -1.722656 4.175781 -3 3.28125 -4.6875 C 2.394531 -6.382812 1.953125 -8.453125 1.953125 -10.890625 C 1.953125 -13.367188 2.421875 -15.457031 3.359375 -17.15625 C 4.296875 -18.851562 5.5625 -20.117188 7.15625 -20.953125 C 8.75 -21.796875 10.539062 -22.21875 12.53125 -22.21875 C 15.613281 -22.21875 17.972656 -21.398438 19.609375 -19.765625 C 21.253906 -18.128906 22.078125 -15.734375 22.078125 -12.578125 C 22.078125 -11.429688 22.039062 -10.539062 21.96875 -9.90625 Z M 16.84375 -13.203125 C 16.789062 -14.867188 16.40625 -16.078125 15.6875 -16.828125 C 14.96875 -17.585938 13.914062 -17.96875 12.53125 -17.96875 C 9.757812 -17.96875 8.132812 -16.378906 7.65625 -13.203125 Z M 16.84375 -13.203125 "/></g></g></g><g fill="#ff5757" fill-opacity="0.4"><g transform="translate(233.247766, 204.664309)"><g><path d="M 3.140625 0 L 3.140625 -30.5625 L 8.625 -30.5625 L 8.625 -13.59375 L 9.15625 -13.59375 L 15.453125 -21.796875 L 21.015625 -21.796875 L 21.015625 -21.34375 L 13.59375 -11.78125 L 21.84375 -0.5 L 21.84375 0 L 16.078125 0 L 9.15625 -9.1875 L 8.625 -9.1875 L 8.625 0 Z M 3.140625 0 "/></g></g></g><g fill="#ff5757" fill-opacity="0.4"><g transform="translate(254.316693, 204.664309)"><g><path d="M 12.671875 0.421875 C 10.535156 0.421875 8.660156 -0.015625 7.046875 -0.890625 C 5.429688 -1.773438 4.175781 -3.0625 3.28125 -4.75 C 2.394531 -6.445312 1.953125 -8.492188 1.953125 -10.890625 C 1.953125 -13.285156 2.394531 -15.332031 3.28125 -17.03125 C 4.175781 -18.738281 5.429688 -20.03125 7.046875 -20.90625 C 8.660156 -21.78125 10.535156 -22.21875 12.671875 -22.21875 C 14.804688 -22.21875 16.679688 -21.78125 18.296875 -20.90625 C 19.910156 -20.03125 21.164062 -18.738281 22.0625 -17.03125 C 22.957031 -15.332031 23.40625 -13.285156 23.40625 -10.890625 C 23.40625 -8.492188 22.957031 -6.445312 22.0625 -4.75 C 21.164062 -3.0625 19.910156 -1.773438 18.296875 -0.890625 C 16.679688 -0.015625 14.804688 0.421875 12.671875 0.421875 Z M 12.671875 -4.234375 C 16.054688 -4.234375 17.75 -6.453125 17.75 -10.890625 C 17.75 -13.191406 17.3125 -14.878906 16.4375 -15.953125 C 15.570312 -17.035156 14.316406 -17.578125 12.671875 -17.578125 C 9.285156 -17.578125 7.59375 -15.347656 7.59375 -10.890625 C 7.59375 -6.453125 9.285156 -4.234375 12.671875 -4.234375 Z M 12.671875 -4.234375 "/></g></g></g><g fill="#ff5757" fill-opacity="0.4"><g transform="translate(278.84431, 204.664309)"><g><path d="M 9.046875 0.421875 C 7.085938 0.421875 5.585938 -0.109375 4.546875 -1.171875 C 3.515625 -2.234375 3 -3.847656 3 -6.015625 L 3 -30.5625 L 8.484375 -30.5625 L 8.484375 -6.234375 C 8.484375 -4.898438 9.035156 -4.234375 10.140625 -4.234375 C 10.453125 -4.234375 10.789062 -4.285156 11.15625 -4.390625 L 11.421875 -4.3125 L 11.921875 -0.09375 C 11.617188 0.0625 11.21875 0.1875 10.71875 0.28125 C 10.21875 0.375 9.660156 0.421875 9.046875 0.421875 Z M 9.046875 0.421875 "/></g></g></g><g fill="#ff5757" fill-opacity="0.4"><g transform="translate(290.56489, 204.664309)"><g><path d="M 8.5 0.421875 C 7.101562 0.421875 5.890625 0.164062 4.859375 -0.34375 C 3.835938 -0.863281 3.046875 -1.617188 2.484375 -2.609375 C 1.929688 -3.609375 1.65625 -4.804688 1.65625 -6.203125 C 1.65625 -7.492188 1.929688 -8.578125 2.484375 -9.453125 C 3.046875 -10.328125 3.90625 -11.046875 5.0625 -11.609375 C 6.21875 -12.171875 7.734375 -12.601562 9.609375 -12.90625 C 10.910156 -13.113281 11.898438 -13.34375 12.578125 -13.59375 C 13.253906 -13.84375 13.710938 -14.125 13.953125 -14.4375 C 14.191406 -14.757812 14.3125 -15.164062 14.3125 -15.65625 C 14.3125 -16.351562 14.066406 -16.882812 13.578125 -17.25 C 13.085938 -17.625 12.28125 -17.8125 11.15625 -17.8125 C 9.9375 -17.8125 8.78125 -17.539062 7.6875 -17 C 6.59375 -16.457031 5.644531 -15.742188 4.84375 -14.859375 L 4.453125 -14.859375 L 2.15625 -18.328125 C 3.257812 -19.546875 4.609375 -20.5 6.203125 -21.1875 C 7.796875 -21.875 9.535156 -22.21875 11.421875 -22.21875 C 14.304688 -22.21875 16.394531 -21.601562 17.6875 -20.375 C 18.976562 -19.15625 19.625 -17.414062 19.625 -15.15625 L 19.625 -5.6875 C 19.625 -4.71875 20.054688 -4.234375 20.921875 -4.234375 C 21.242188 -4.234375 21.566406 -4.289062 21.890625 -4.40625 L 22.15625 -4.328125 L 22.5625 -0.515625 C 22.25 -0.316406 21.820312 -0.15625 21.28125 -0.03125 C 20.75 0.09375 20.160156 0.15625 19.515625 0.15625 C 18.203125 0.15625 17.179688 -0.09375 16.453125 -0.59375 C 15.722656 -1.09375 15.203125 -1.878906 14.890625 -2.953125 L 14.46875 -2.984375 C 13.40625 -0.710938 11.414062 0.421875 8.5 0.421875 Z M 10.234375 -3.671875 C 11.503906 -3.671875 12.515625 -4.097656 13.265625 -4.953125 C 14.023438 -5.804688 14.40625 -6.988281 14.40625 -8.5 L 14.40625 -10.71875 L 14.03125 -10.796875 C 13.707031 -10.523438 13.273438 -10.300781 12.734375 -10.125 C 12.203125 -9.945312 11.4375 -9.773438 10.4375 -9.609375 C 9.25 -9.410156 8.394531 -9.070312 7.875 -8.59375 C 7.351562 -8.113281 7.09375 -7.429688 7.09375 -6.546875 C 7.09375 -5.609375 7.367188 -4.894531 7.921875 -4.40625 C 8.472656 -3.914062 9.242188 -3.671875 10.234375 -3.671875 Z M 10.234375 -3.671875 "/></g></g></g><g fill="#ff5757" fill-opacity="0.4"><g transform="translate(312.740609, 204.664309)"><g><path d="M 3.140625 0 L 3.140625 -30.5625 L 8.625 -30.5625 L 8.625 -18.953125 L 9.03125 -18.875 C 9.757812 -19.945312 10.648438 -20.769531 11.703125 -21.34375 C 12.753906 -21.925781 14.023438 -22.21875 15.515625 -22.21875 C 20.328125 -22.21875 22.734375 -19.488281 22.734375 -14.03125 L 22.734375 0 L 17.25 0 L 17.25 -13.34375 C 17.25 -14.832031 16.953125 -15.910156 16.359375 -16.578125 C 15.773438 -17.253906 14.851562 -17.59375 13.59375 -17.59375 C 12.070312 -17.59375 10.863281 -17.082031 9.96875 -16.0625 C 9.070312 -15.039062 8.625 -13.445312 8.625 -11.28125 L 8.625 0 Z M 3.140625 0 "/></g></g></g><g fill="#e67e22" fill-opacity="1"><g transform="translate(63.697574, 202.874987)"><g><path d="M 14.921875 -28.90625 C 16.992188 -28.90625 18.765625 -28.523438 20.234375 -27.765625 C 21.703125 -27.003906 22.8125 -25.941406 23.5625 -24.578125 C 24.3125 -23.210938 24.6875 -21.628906 24.6875 -19.828125 C 24.6875 -18.023438 24.3125 -16.441406 23.5625 -15.078125 C 22.8125 -13.722656 21.703125 -12.664062 20.234375 -11.90625 C 18.765625 -11.144531 16.992188 -10.765625 14.921875 -10.765625 L 9.46875 -10.765625 L 9.46875 0 L 3.75 0 L 3.75 -28.90625 Z M 14.171875 -15.296875 C 17.347656 -15.296875 18.9375 -16.804688 18.9375 -19.828125 C 18.9375 -22.859375 17.347656 -24.375 14.171875 -24.375 L 9.46875 -24.375 L 9.46875 -15.296875 Z M 14.171875 -15.296875 "/></g></g></g><g fill="#e67e22" fill-opacity="1"><g transform="translate(89.292447, 202.874987)"><g><path d="M 21.546875 -9.671875 L 7.53125 -9.671875 C 7.6875 -7.765625 8.222656 -6.378906 9.140625 -5.515625 C 10.066406 -4.660156 11.328125 -4.234375 12.921875 -4.234375 C 14.179688 -4.234375 15.195312 -4.46875 15.96875 -4.9375 C 16.75 -5.40625 17.375 -6.113281 17.84375 -7.0625 L 18.265625 -7.0625 L 21.90625 -4.71875 C 21.1875 -3.195312 20.109375 -1.957031 18.671875 -1 C 17.242188 -0.0507812 15.328125 0.421875 12.921875 0.421875 C 10.671875 0.421875 8.722656 -0.00390625 7.078125 -0.859375 C 5.441406 -1.722656 4.175781 -3 3.28125 -4.6875 C 2.394531 -6.382812 1.953125 -8.453125 1.953125 -10.890625 C 1.953125 -13.367188 2.421875 -15.457031 3.359375 -17.15625 C 4.296875 -18.851562 5.5625 -20.117188 7.15625 -20.953125 C 8.75 -21.796875 10.539062 -22.21875 12.53125 -22.21875 C 15.613281 -22.21875 17.972656 -21.398438 19.609375 -19.765625 C 21.253906 -18.128906 22.078125 -15.734375 22.078125 -12.578125 C 22.078125 -11.429688 22.039062 -10.539062 21.96875 -9.90625 Z M 16.84375 -13.203125 C 16.789062 -14.867188 16.40625 -16.078125 15.6875 -16.828125 C 14.96875 -17.585938 13.914062 -17.96875 12.53125 -17.96875 C 9.757812 -17.96875 8.132812 -16.378906 7.65625 -13.203125 Z M 16.84375 -13.203125 "/></g></g></g><g fill="#e67e22" fill-opacity="1"><g transform="translate(112.179659, 202.874987)"><g><path d="M 10.765625 0.421875 C 9.046875 0.421875 7.519531 0.00390625 6.1875 -0.828125 C 4.863281 -1.671875 3.828125 -2.9375 3.078125 -4.625 C 2.328125 -6.320312 1.953125 -8.410156 1.953125 -10.890625 C 1.953125 -13.378906 2.335938 -15.46875 3.109375 -17.15625 C 3.878906 -18.851562 4.945312 -20.117188 6.3125 -20.953125 C 7.675781 -21.796875 9.253906 -22.21875 11.046875 -22.21875 C 12.410156 -22.21875 13.585938 -21.984375 14.578125 -21.515625 C 15.578125 -21.046875 16.414062 -20.316406 17.09375 -19.328125 L 17.515625 -19.4375 L 17.515625 -30.5625 L 22.984375 -30.5625 L 22.984375 0 L 17.515625 0 L 17.515625 -2.828125 L 17.09375 -2.90625 C 16.488281 -1.875 15.660156 -1.0625 14.609375 -0.46875 C 13.554688 0.125 12.273438 0.421875 10.765625 0.421875 Z M 12.546875 -4.234375 C 14.085938 -4.234375 15.304688 -4.78125 16.203125 -5.875 C 17.097656 -6.976562 17.546875 -8.648438 17.546875 -10.890625 C 17.546875 -13.128906 17.097656 -14.800781 16.203125 -15.90625 C 15.304688 -17.019531 14.085938 -17.578125 12.546875 -17.578125 C 10.941406 -17.578125 9.710938 -17.035156 8.859375 -15.953125 C 8.015625 -14.878906 7.59375 -13.191406 7.59375 -10.890625 C 7.59375 -8.597656 8.015625 -6.914062 8.859375 -5.84375 C 9.710938 -4.769531 10.941406 -4.234375 12.546875 -4.234375 Z M 12.546875 -4.234375 "/></g></g></g><g fill="#e67e22" fill-opacity="1"><g transform="translate(137.49784, 202.874987)"><g><path d="M 9.984375 0.421875 C 7.535156 0.421875 5.726562 -0.242188 4.5625 -1.578125 C 3.394531 -2.921875 2.8125 -4.847656 2.8125 -7.359375 L 2.8125 -21.796875 L 8.28125 -21.796875 L 8.28125 -8.046875 C 8.28125 -6.710938 8.566406 -5.738281 9.140625 -5.125 C 9.710938 -4.507812 10.597656 -4.203125 11.796875 -4.203125 C 13.316406 -4.203125 14.5 -4.703125 15.34375 -5.703125 C 16.1875 -6.703125 16.609375 -8.265625 16.609375 -10.390625 L 16.609375 -21.796875 L 22.078125 -21.796875 L 22.078125 0 L 16.828125 0 L 16.828125 -3.203125 L 16.40625 -3.296875 C 15.707031 -2.046875 14.851562 -1.113281 13.84375 -0.5 C 12.832031 0.113281 11.546875 0.421875 9.984375 0.421875 Z M 9.984375 0.421875 "/></g></g></g><g fill="#e67e22" fill-opacity="1"><g transform="translate(161.906873, 202.874987)"><g><path d="M 9.046875 0.421875 C 7.085938 0.421875 5.585938 -0.109375 4.546875 -1.171875 C 3.515625 -2.234375 3 -3.847656 3 -6.015625 L 3 -30.5625 L 8.484375 -30.5625 L 8.484375 -6.234375 C 8.484375 -4.898438 9.035156 -4.234375 10.140625 -4.234375 C 10.453125 -4.234375 10.789062 -4.285156 11.15625 -4.390625 L 11.421875 -4.3125 L 11.921875 -0.09375 C 11.617188 0.0625 11.21875 0.1875 10.71875 0.28125 C 10.21875 0.375 9.660156 0.421875 9.046875 0.421875 Z M 9.046875 0.421875 "/></g></g></g><g fill="#e67e22" fill-opacity="1"><g transform="translate(173.627453, 202.874987)"><g><path d="M 5.875 -24.40625 C 4.882812 -24.40625 4.078125 -24.707031 3.453125 -25.3125 C 2.835938 -25.914062 2.53125 -26.691406 2.53125 -27.640625 C 2.53125 -28.566406 2.835938 -29.332031 3.453125 -29.9375 C 4.078125 -30.539062 4.882812 -30.84375 5.875 -30.84375 C 6.53125 -30.84375 7.113281 -30.703125 7.625 -30.421875 C 8.144531 -30.140625 8.546875 -29.757812 8.828125 -29.28125 C 9.109375 -28.800781 9.25 -28.253906 9.25 -27.640625 C 9.25 -27.015625 9.109375 -26.457031 8.828125 -25.96875 C 8.546875 -25.488281 8.144531 -25.109375 7.625 -24.828125 C 7.113281 -24.546875 6.53125 -24.40625 5.875 -24.40625 Z M 3.140625 0 L 3.140625 -21.796875 L 8.625 -21.796875 L 8.625 0 Z M 3.140625 0 "/></g></g></g><g fill="#e67e22" fill-opacity="1"><g transform="translate(184.557476, 202.874987)"><g><path d="M 12.8125 0.421875 C 10.8125 0.421875 9.03125 0.175781 7.46875 -0.3125 C 5.90625 -0.8125 4.601562 -1.460938 3.5625 -2.265625 C 2.519531 -3.078125 1.722656 -3.960938 1.171875 -4.921875 L 4.3125 -8.75 L 4.796875 -8.75 C 5.671875 -7.457031 6.773438 -6.429688 8.109375 -5.671875 C 9.453125 -4.910156 11.019531 -4.53125 12.8125 -4.53125 C 14.34375 -4.53125 15.492188 -4.851562 16.265625 -5.5 C 17.046875 -6.144531 17.4375 -7.035156 17.4375 -8.171875 C 17.4375 -8.847656 17.3125 -9.414062 17.0625 -9.875 C 16.8125 -10.34375 16.394531 -10.738281 15.8125 -11.0625 C 15.226562 -11.394531 14.445312 -11.679688 13.46875 -11.921875 L 9.75 -12.765625 C 7.144531 -13.359375 5.207031 -14.34375 3.9375 -15.71875 C 2.664062 -17.101562 2.03125 -18.894531 2.03125 -21.09375 C 2.03125 -22.726562 2.4375 -24.164062 3.25 -25.40625 C 4.070312 -26.644531 5.265625 -27.601562 6.828125 -28.28125 C 8.390625 -28.96875 10.257812 -29.3125 12.4375 -29.3125 C 14.664062 -29.3125 16.570312 -29.019531 18.15625 -28.4375 C 19.738281 -27.851562 21.078125 -26.953125 22.171875 -25.734375 L 19.359375 -21.859375 L 18.859375 -21.859375 C 18.046875 -22.710938 17.109375 -23.351562 16.046875 -23.78125 C 14.992188 -24.21875 13.789062 -24.4375 12.4375 -24.4375 C 10.863281 -24.4375 9.664062 -24.15625 8.84375 -23.59375 C 8.03125 -23.039062 7.625 -22.28125 7.625 -21.3125 C 7.625 -20.40625 7.910156 -19.679688 8.484375 -19.140625 C 9.054688 -18.597656 10.050781 -18.175781 11.46875 -17.875 L 15.265625 -17.078125 C 18.066406 -16.484375 20.097656 -15.476562 21.359375 -14.0625 C 22.628906 -12.644531 23.265625 -10.796875 23.265625 -8.515625 C 23.265625 -6.710938 22.875 -5.140625 22.09375 -3.796875 C 21.320312 -2.460938 20.148438 -1.425781 18.578125 -0.6875 C 17.015625 0.0507812 15.09375 0.421875 12.8125 0.421875 Z M 12.8125 0.421875 "/></g></g></g><g fill="#e67e22" fill-opacity="1"><g transform="translate(208.57123, 202.874987)"><g><path d="M 21.546875 -9.671875 L 7.53125 -9.671875 C 7.6875 -7.765625 8.222656 -6.378906 9.140625 -5.515625 C 10.066406 -4.660156 11.328125 -4.234375 12.921875 -4.234375 C 14.179688 -4.234375 15.195312 -4.46875 15.96875 -4.9375 C 16.75 -5.40625 17.375 -6.113281 17.84375 -7.0625 L 18.265625 -7.0625 L 21.90625 -4.71875 C 21.1875 -3.195312 20.109375 -1.957031 18.671875 -1 C 17.242188 -0.0507812 15.328125 0.421875 12.921875 0.421875 C 10.671875 0.421875 8.722656 -0.00390625 7.078125 -0.859375 C 5.441406 -1.722656 4.175781 -3 3.28125 -4.6875 C 2.394531 -6.382812 1.953125 -8.453125 1.953125 -10.890625 C 1.953125 -13.367188 2.421875 -15.457031 3.359375 -17.15625 C 4.296875 -18.851562 5.5625 -20.117188 7.15625 -20.953125 C 8.75 -21.796875 10.539062 -22.21875 12.53125 -22.21875 C 15.613281 -22.21875 17.972656 -21.398438 19.609375 -19.765625 C 21.253906 -18.128906 22.078125 -15.734375 22.078125 -12.578125 C 22.078125 -11.429688 22.039062 -10.539062 21.96875 -9.90625 Z M 16.84375 -13.203125 C 16.789062 -14.867188 16.40625 -16.078125 15.6875 -16.828125 C 14.96875 -17.585938 13.914062 -17.96875 12.53125 -17.96875 C 9.757812 -17.96875 8.132812 -16.378906 7.65625 -13.203125 Z M 16.84375 -13.203125 "/></g></g></g><g fill="#e67e22" fill-opacity="1"><g transform="translate(231.458439, 202.874987)"><g><path d="M 3.140625 0 L 3.140625 -30.5625 L 8.625 -30.5625 L 8.625 -13.59375 L 9.15625 -13.59375 L 15.453125 -21.796875 L 21.015625 -21.796875 L 21.015625 -21.34375 L 13.59375 -11.78125 L 21.84375 -0.5 L 21.84375 0 L 16.078125 0 L 9.15625 -9.1875 L 8.625 -9.1875 L 8.625 0 Z M 3.140625 0 "/></g></g></g><g fill="#e67e22" fill-opacity="1"><g transform="translate(252.527366, 202.874987)"><g><path d="M 12.671875 0.421875 C 10.535156 0.421875 8.660156 -0.015625 7.046875 -0.890625 C 5.429688 -1.773438 4.175781 -3.0625 3.28125 -4.75 C 2.394531 -6.445312 1.953125 -8.492188 1.953125 -10.890625 C 1.953125 -13.285156 2.394531 -15.332031 3.28125 -17.03125 C 4.175781 -18.738281 5.429688 -20.03125 7.046875 -20.90625 C 8.660156 -21.78125 10.535156 -22.21875 12.671875 -22.21875 C 14.804688 -22.21875 16.679688 -21.78125 18.296875 -20.90625 C 19.910156 -20.03125 21.164062 -18.738281 22.0625 -17.03125 C 22.957031 -15.332031 23.40625 -13.285156 23.40625 -10.890625 C 23.40625 -8.492188 22.957031 -6.445312 22.0625 -4.75 C 21.164062 -3.0625 19.910156 -1.773438 18.296875 -0.890625 C 16.679688 -0.015625 14.804688 0.421875 12.671875 0.421875 Z M 12.671875 -4.234375 C 16.054688 -4.234375 17.75 -6.453125 17.75 -10.890625 C 17.75 -13.191406 17.3125 -14.878906 16.4375 -15.953125 C 15.570312 -17.035156 14.316406 -17.578125 12.671875 -17.578125 C 9.285156 -17.578125 7.59375 -15.347656 7.59375 -10.890625 C 7.59375 -6.453125 9.285156 -4.234375 12.671875 -4.234375 Z M 12.671875 -4.234375 "/></g></g></g><g fill="#e67e22" fill-opacity="1"><g transform="translate(277.054982, 202.874987)"><g><path d="M 9.046875 0.421875 C 7.085938 0.421875 5.585938 -0.109375 4.546875 -1.171875 C 3.515625 -2.234375 3 -3.847656 3 -6.015625 L 3 -30.5625 L 8.484375 -30.5625 L 8.484375 -6.234375 C 8.484375 -4.898438 9.035156 -4.234375 10.140625 -4.234375 C 10.453125 -4.234375 10.789062 -4.285156 11.15625 -4.390625 L 11.421875 -4.3125 L 11.921875 -0.09375 C 11.617188 0.0625 11.21875 0.1875 10.71875 0.28125 C 10.21875 0.375 9.660156 0.421875 9.046875 0.421875 Z M 9.046875 0.421875 "/></g></g></g><g fill="#e67e22" fill-opacity="1"><g transform="translate(288.775563, 202.874987)"><g><path d="M 8.5 0.421875 C 7.101562 0.421875 5.890625 0.164062 4.859375 -0.34375 C 3.835938 -0.863281 3.046875 -1.617188 2.484375 -2.609375 C 1.929688 -3.609375 1.65625 -4.804688 1.65625 -6.203125 C 1.65625 -7.492188 1.929688 -8.578125 2.484375 -9.453125 C 3.046875 -10.328125 3.90625 -11.046875 5.0625 -11.609375 C 6.21875 -12.171875 7.734375 -12.601562 9.609375 -12.90625 C 10.910156 -13.113281 11.898438 -13.34375 12.578125 -13.59375 C 13.253906 -13.84375 13.710938 -14.125 13.953125 -14.4375 C 14.191406 -14.757812 14.3125 -15.164062 14.3125 -15.65625 C 14.3125 -16.351562 14.066406 -16.882812 13.578125 -17.25 C 13.085938 -17.625 12.28125 -17.8125 11.15625 -17.8125 C 9.9375 -17.8125 8.78125 -17.539062 7.6875 -17 C 6.59375 -16.457031 5.644531 -15.742188 4.84375 -14.859375 L 4.453125 -14.859375 L 2.15625 -18.328125 C 3.257812 -19.546875 4.609375 -20.5 6.203125 -21.1875 C 7.796875 -21.875 9.535156 -22.21875 11.421875 -22.21875 C 14.304688 -22.21875 16.394531 -21.601562 17.6875 -20.375 C 18.976562 -19.15625 19.625 -17.414062 19.625 -15.15625 L 19.625 -5.6875 C 19.625 -4.71875 20.054688 -4.234375 20.921875 -4.234375 C 21.242188 -4.234375 21.566406 -4.289062 21.890625 -4.40625 L 22.15625 -4.328125 L 22.5625 -0.515625 C 22.25 -0.316406 21.820312 -0.15625 21.28125 -0.03125 C 20.75 0.09375 20.160156 0.15625 19.515625 0.15625 C 18.203125 0.15625 17.179688 -0.09375 16.453125 -0.59375 C 15.722656 -1.09375 15.203125 -1.878906 14.890625 -2.953125 L 14.46875 -2.984375 C 13.40625 -0.710938 11.414062 0.421875 8.5 0.421875 Z M 10.234375 -3.671875 C 11.503906 -3.671875 12.515625 -4.097656 13.265625 -4.953125 C 14.023438 -5.804688 14.40625 -6.988281 14.40625 -8.5 L 14.40625 -10.71875 L 14.03125 -10.796875 C 13.707031 -10.523438 13.273438 -10.300781 12.734375 -10.125 C 12.203125 -9.945312 11.4375 -9.773438 10.4375 -9.609375 C 9.25 -9.410156 8.394531 -9.070312 7.875 -8.59375 C 7.351562 -8.113281 7.09375 -7.429688 7.09375 -6.546875 C 7.09375 -5.609375 7.367188 -4.894531 7.921875 -4.40625 C 8.472656 -3.914062 9.242188 -3.671875 10.234375 -3.671875 Z M 10.234375 -3.671875 "/></g></g></g><g fill="#e67e22" fill-opacity="1"><g transform="translate(310.951282, 202.874987)"><g><path d="M 3.140625 0 L 3.140625 -30.5625 L 8.625 -30.5625 L 8.625 -18.953125 L 9.03125 -18.875 C 9.757812 -19.945312 10.648438 -20.769531 11.703125 -21.34375 C 12.753906 -21.925781 14.023438 -22.21875 15.515625 -22.21875 C 20.328125 -22.21875 22.734375 -19.488281 22.734375 -14.03125 L 22.734375 0 L 17.25 0 L 17.25 -13.34375 C 17.25 -14.832031 16.953125 -15.910156 16.359375 -16.578125 C 15.773438 -17.253906 14.851562 -17.59375 13.59375 -17.59375 C 12.070312 -17.59375 10.863281 -17.082031 9.96875 -16.0625 C 9.070312 -15.039062 8.625 -13.445312 8.625 -11.28125 L 8.625 0 Z M 3.140625 0 "/></g></g></g><g clip-path="url(#9e47829c7a)"><g clip-path="url(#987e548257)"><path fill="#f72b02" d="M 64.1875 198.453125 L 64.1875 203 L 42.835938 203 L 42.835938 198.453125 Z M 64.1875 198.453125 " fill-opacity="1" fill-rule="nonzero"/></g></g><g clip-path="url(#ea2b5bcb7f)"><g clip-path="url(#653a000f43)"><path fill="#d9d9d9" d="M 63.636719 198.929688 L 63.636719 202.523438 L 42.523438 202.523438 L 42.523438 198.929688 Z M 63.636719 198.929688 " fill-opacity="1" fill-rule="nonzero"/></g></g><g clip-path="url(#0c91fb41df)"><g clip-path="url(#147b9f4186)"><path fill="#7828db" d="M 37.5 194.054688 L 37.5 189.507812 L 58.851562 189.507812 L 58.851562 194.054688 Z M 37.5 194.054688 " fill-opacity="1" fill-rule="nonzero"/></g></g><g clip-path="url(#70ac51ddd4)"><g clip-path="url(#60641f5431)"><path fill="#d9d9d9" d="M 38.050781 193.582031 L 38.050781 189.984375 L 59.167969 189.984375 L 59.167969 193.582031 Z M 38.050781 193.582031 " fill-opacity="1" fill-rule="nonzero"/></g></g><g clip-path="url(#7d826e7be4)"><g clip-path="url(#5563e5adb3)"><path fill="#296613" d="M 62.203125 184.964844 L 62.203125 189.511719 L 40.851562 189.511719 L 40.851562 184.964844 Z M 62.203125 184.964844 " fill-opacity="1" fill-rule="nonzero"/></g></g><g clip-path="url(#907f83cdb4)"><g clip-path="url(#55400c99d2)"><path fill="#d9d9d9" d="M 61.652344 185.441406 L 61.652344 189.035156 L 40.539062 189.035156 L 40.539062 185.441406 Z M 61.652344 185.441406 " fill-opacity="1" fill-rule="nonzero"/></g></g><g clip-path="url(#5454707741)"><g clip-path="url(#a352a38bf1)"><path fill="#135766" d="M 44.425781 198.605469 L 44.425781 194.054688 L 65.773438 194.054688 L 65.773438 198.605469 Z M 44.425781 198.605469 " fill-opacity="1" fill-rule="nonzero"/></g></g><g clip-path="url(#350679e15e)"><g clip-path="url(#0df92d08a6)"><path fill="#d9d9d9" d="M 44.976562 198.128906 L 44.976562 194.53125 L 66.089844 194.53125 L 66.089844 198.128906 Z M 44.976562 198.128906 " fill-opacity="1" fill-rule="nonzero"/></g></g><g clip-path="url(#10e117f975)"><path fill="#dd2e44" d="M 50.664062 174.570312 C 49.59375 174.570312 49.59375 174.933594 48.523438 174.933594 C 47.453125 174.933594 47.453125 174.570312 46.378906 174.570312 C 44.953125 174.570312 43.167969 175.296875 43.167969 177.832031 C 43.167969 181.816406 45.308594 185.078125 46.738281 185.078125 C 47.808594 185.078125 47.808594 184.714844 48.523438 184.714844 C 49.238281 184.714844 49.238281 185.078125 50.308594 185.078125 C 51.734375 185.078125 53.878906 181.816406 53.878906 177.832031 C 53.878906 175.296875 52.09375 174.570312 50.664062 174.570312 Z M 50.664062 174.570312 " fill-opacity="1" fill-rule="nonzero"/></g><g clip-path="url(#b861fb41a1)"><path fill="#77b255" d="M 48.878906 174.570312 C 48.878906 174.570312 49.949219 173.121094 51.734375 173.121094 C 53.164062 173.121094 53.878906 173.847656 53.878906 173.847656 C 53.878906 173.847656 52.449219 174.933594 51.378906 174.933594 C 50.308594 174.933594 48.878906 174.570312 48.878906 174.570312 Z M 48.878906 174.570312 " fill-opacity="1" fill-rule="nonzero"/></g><path fill="#662113" d="M 48.523438 175.65625 C 48.324219 175.65625 48.164062 175.496094 48.164062 175.296875 C 48.164062 174.046875 48.59375 172.898438 49.339844 172.140625 C 49.480469 172 49.707031 172 49.847656 172.140625 C 49.984375 172.28125 49.984375 172.511719 49.847656 172.652344 C 49.230469 173.277344 48.878906 174.238281 48.878906 175.296875 C 48.878906 175.496094 48.71875 175.65625 48.523438 175.65625 Z M 48.523438 175.65625 " fill-opacity="1" fill-rule="nonzero"/><g clip-path="url(#d50a3581a8)"><g clip-path="url(#cc0dfaa67c)"><g clip-path="url(#0b4f63a2b0)"><path fill="#ffffff" d="M 43.671875 176.238281 L 46.234375 174.765625 L 47.105469 176.28125 L 44.539062 177.753906 Z M 43.671875 176.238281 " fill-opacity="1" fill-rule="nonzero"/></g></g></g></svg>