<svg xmlns="http://www.w3.org/2000/svg" xmlns:xlink="http://www.w3.org/1999/xlink" width="500" zoomAndPan="magnify" viewBox="0 0 375 374.999991" height="500" preserveAspectRatio="xMidYMid meet" version="1.0"><defs><g/><clipPath id="b0de4ce6d4"><path d="M 125.84375 179.574219 L 139.320312 179.574219 L 139.320312 250.011719 L 125.84375 250.011719 Z M 125.84375 179.574219 " clip-rule="nonzero"/></clipPath><clipPath id="fba078ee45"><path d="M 128.09375 179.574219 L 137.070312 179.574219 C 138.3125 179.574219 139.320312 180.578125 139.320312 181.824219 L 139.320312 247.757812 C 139.320312 249.003906 138.3125 250.007812 137.070312 250.007812 L 128.09375 250.007812 C 126.851562 250.007812 125.84375 249.003906 125.84375 247.757812 L 125.84375 181.824219 C 125.84375 180.578125 126.851562 179.574219 128.09375 179.574219 Z M 128.09375 179.574219 " clip-rule="nonzero"/></clipPath><clipPath id="ccfa2d5182"><path d="M 111.425781 186.863281 L 124.90625 186.863281 L 124.90625 250.199219 L 111.425781 250.199219 Z M 111.425781 186.863281 " clip-rule="nonzero"/></clipPath><clipPath id="5831fec9da"><path d="M 113.675781 186.863281 L 122.65625 186.863281 C 123.898438 186.863281 124.90625 187.871094 124.90625 189.113281 L 124.90625 247.925781 C 124.90625 249.167969 123.898438 250.175781 122.65625 250.175781 L 113.675781 250.175781 C 112.433594 250.175781 111.425781 249.167969 111.425781 247.925781 L 111.425781 189.113281 C 111.425781 187.871094 112.433594 186.863281 113.675781 186.863281 Z M 113.675781 186.863281 " clip-rule="nonzero"/></clipPath><clipPath id="7c3932be91"><path d="M 59.410156 239.800781 L 107.199219 239.800781 L 107.199219 250.011719 L 59.410156 250.011719 Z M 59.410156 239.800781 " clip-rule="nonzero"/></clipPath><clipPath id="ab79a8d415"><path d="M 107.160156 242.089844 L 107.160156 247.761719 C 107.160156 249.003906 106.152344 250.011719 104.910156 250.011719 L 61.660156 250.011719 C 60.417969 250.011719 59.410156 249.003906 59.410156 247.761719 L 59.410156 242.089844 C 59.410156 240.847656 60.417969 239.839844 61.660156 239.839844 L 104.910156 239.839844 C 106.152344 239.839844 107.160156 240.847656 107.160156 242.089844 Z M 107.160156 242.089844 " clip-rule="nonzero"/></clipPath><clipPath id="b1776737af"><path d="M 58.675781 240.898438 L 105.933594 240.898438 L 105.933594 248.945312 L 58.675781 248.945312 Z M 58.675781 240.898438 " clip-rule="nonzero"/></clipPath><clipPath id="576b21bd63"><path d="M 105.933594 243.148438 L 105.933594 246.695312 C 105.933594 247.9375 104.925781 248.945312 103.683594 248.945312 L 60.949219 248.945312 C 59.703125 248.945312 58.699219 247.9375 58.699219 246.695312 L 58.699219 243.148438 C 58.699219 241.90625 59.703125 240.898438 60.949219 240.898438 L 103.683594 240.898438 C 104.925781 240.898438 105.933594 241.90625 105.933594 243.148438 Z M 105.933594 243.148438 " clip-rule="nonzero"/></clipPath><clipPath id="f90e734986"><path d="M 47.4375 219.835938 L 95.226562 219.835938 L 95.226562 230.042969 L 47.4375 230.042969 Z M 47.4375 219.835938 " clip-rule="nonzero"/></clipPath><clipPath id="c582a92b46"><path d="M 47.476562 227.753906 L 47.476562 222.085938 C 47.476562 220.84375 48.484375 219.835938 49.726562 219.835938 L 92.976562 219.835938 C 94.21875 219.835938 95.226562 220.84375 95.226562 222.085938 L 95.226562 227.753906 C 95.226562 228.996094 94.21875 230.003906 92.976562 230.003906 L 49.726562 230.003906 C 48.484375 230.003906 47.476562 228.996094 47.476562 227.753906 Z M 47.476562 227.753906 " clip-rule="nonzero"/></clipPath><clipPath id="3acf3c8b7c"><path d="M 48.707031 220.898438 L 95.964844 220.898438 L 95.964844 228.941406 L 48.707031 228.941406 Z M 48.707031 220.898438 " clip-rule="nonzero"/></clipPath><clipPath id="b4d7ffd1ad"><path d="M 48.707031 226.691406 L 48.707031 223.148438 C 48.707031 221.90625 49.714844 220.898438 50.957031 220.898438 L 93.695312 220.898438 C 94.9375 220.898438 95.945312 221.90625 95.945312 223.148438 L 95.945312 226.691406 C 95.945312 227.9375 94.9375 228.941406 93.695312 228.941406 L 50.957031 228.941406 C 49.714844 228.941406 48.707031 227.9375 48.707031 226.691406 Z M 48.707031 226.691406 " clip-rule="nonzero"/></clipPath><clipPath id="92ef58ca9e"><path d="M 54.972656 209.632812 L 102.761719 209.632812 L 102.761719 219.84375 L 54.972656 219.84375 Z M 54.972656 209.632812 " clip-rule="nonzero"/></clipPath><clipPath id="101f15f053"><path d="M 102.722656 211.925781 L 102.722656 217.59375 C 102.722656 218.835938 101.714844 219.84375 100.472656 219.84375 L 57.222656 219.84375 C 55.980469 219.84375 54.972656 218.835938 54.972656 217.59375 L 54.972656 211.925781 C 54.972656 210.683594 55.980469 209.675781 57.222656 209.675781 L 100.472656 209.675781 C 101.714844 209.675781 102.722656 210.683594 102.722656 211.925781 Z M 102.722656 211.925781 " clip-rule="nonzero"/></clipPath><clipPath id="f169715727"><path d="M 54.238281 210.734375 L 101.496094 210.734375 L 101.496094 218.777344 L 54.238281 218.777344 Z M 54.238281 210.734375 " clip-rule="nonzero"/></clipPath><clipPath id="c7e31207f8"><path d="M 101.496094 212.984375 L 101.496094 216.527344 C 101.496094 217.769531 100.488281 218.777344 99.246094 218.777344 L 56.507812 218.777344 C 55.265625 218.777344 54.257812 217.769531 54.257812 216.527344 L 54.257812 212.984375 C 54.257812 211.742188 55.265625 210.734375 56.507812 210.734375 L 99.246094 210.734375 C 100.488281 210.734375 101.496094 211.742188 101.496094 212.984375 Z M 101.496094 212.984375 " clip-rule="nonzero"/></clipPath><clipPath id="4cfa8340a8"><path d="M 87 167 L 123 167 L 123 210 L 87 210 Z M 87 167 " clip-rule="nonzero"/></clipPath><clipPath id="45ea3271bc"><path d="M 94.636719 210.847656 L 86.449219 204.746094 L 115 166.421875 L 123.1875 172.523438 Z M 94.636719 210.847656 " clip-rule="nonzero"/></clipPath><clipPath id="2946fae8a8"><path d="M 92.824219 209.445312 L 88.277344 206.058594 C 87.28125 205.316406 87.074219 203.90625 87.816406 202.910156 L 113.65625 168.226562 C 114.398438 167.230469 115.808594 167.027344 116.804688 167.769531 L 121.351562 171.15625 C 122.347656 171.898438 122.554688 173.308594 121.8125 174.304688 L 95.972656 208.984375 C 95.230469 209.984375 93.820312 210.1875 92.824219 209.445312 Z M 92.824219 209.445312 " clip-rule="nonzero"/></clipPath><clipPath id="4fe42217af"><path d="M 88 167 L 122 167 L 122 209 L 88 209 Z M 88 167 " clip-rule="nonzero"/></clipPath><clipPath id="f6012ed63d"><path d="M 94.511719 209.171875 L 88.0625 204.363281 L 116.296875 166.46875 L 122.746094 171.277344 Z M 94.511719 209.171875 " clip-rule="nonzero"/></clipPath><clipPath id="7691453440"><path d="M 92.707031 207.828125 L 89.867188 205.710938 C 88.871094 204.964844 88.664062 203.558594 89.40625 202.5625 L 114.941406 168.289062 C 115.683594 167.292969 117.09375 167.089844 118.089844 167.832031 L 120.929688 169.949219 C 121.925781 170.691406 122.132812 172.101562 121.390625 173.097656 L 95.859375 207.367188 C 95.113281 208.363281 93.707031 208.570312 92.707031 207.828125 Z M 92.707031 207.828125 " clip-rule="nonzero"/></clipPath><clipPath id="8905f7a69f"><path d="M 62.921875 230.003906 L 110.710938 230.003906 L 110.710938 240.214844 L 62.921875 240.214844 Z M 62.921875 230.003906 " clip-rule="nonzero"/></clipPath><clipPath id="2face4ff03"><path d="M 62.960938 237.925781 L 62.960938 232.253906 C 62.960938 231.011719 63.96875 230.003906 65.210938 230.003906 L 108.460938 230.003906 C 109.707031 230.003906 110.710938 231.011719 110.710938 232.253906 L 110.710938 237.925781 C 110.710938 239.167969 109.707031 240.175781 108.460938 240.175781 L 65.210938 240.175781 C 63.96875 240.175781 62.960938 239.167969 62.960938 237.925781 Z M 62.960938 237.925781 " clip-rule="nonzero"/></clipPath><clipPath id="744c56b660"><path d="M 64.195312 231.070312 L 111.449219 231.070312 L 111.449219 239.113281 L 64.195312 239.113281 Z M 64.195312 231.070312 " clip-rule="nonzero"/></clipPath><clipPath id="3a9f264700"><path d="M 64.195312 236.863281 L 64.195312 233.320312 C 64.195312 232.078125 65.203125 231.070312 66.445312 231.070312 L 109.179688 231.070312 C 110.421875 231.070312 111.429688 232.078125 111.429688 233.320312 L 111.429688 236.863281 C 111.429688 238.105469 110.421875 239.113281 109.179688 239.113281 L 66.445312 239.113281 C 65.203125 239.113281 64.195312 238.105469 64.195312 236.863281 Z M 64.195312 236.863281 " clip-rule="nonzero"/></clipPath><clipPath id="1b5168cfa0"><path d="M 60.128906 186 L 84.128906 186 L 84.128906 209.921875 L 60.128906 209.921875 Z M 60.128906 186 " clip-rule="nonzero"/></clipPath><clipPath id="3dfa98ad5a"><path d="M 72 183 L 84.128906 183 L 84.128906 188 L 72 188 Z M 72 183 " clip-rule="nonzero"/></clipPath><clipPath id="6491bd5f4d"><path d="M 71 180.671875 L 76 180.671875 L 76 189 L 71 189 Z M 71 180.671875 " clip-rule="nonzero"/></clipPath><clipPath id="a75f67771b"><path d="M 62 187 L 69 187 L 69 193 L 62 193 Z M 62 187 " clip-rule="nonzero"/></clipPath><clipPath id="64ae58bd1c"><path d="M 61.277344 190.15625 L 67.023438 186.859375 L 68.96875 190.246094 L 63.222656 193.542969 Z M 61.277344 190.15625 " clip-rule="nonzero"/></clipPath><clipPath id="1cca525fdd"><path d="M 64.144531 188.507812 C 62.5625 189.417969 61.710938 190.914062 62.25 191.847656 C 62.785156 192.785156 64.507812 192.808594 66.089844 191.898438 C 67.675781 190.988281 68.523438 189.496094 67.988281 188.558594 C 67.449219 187.621094 65.730469 187.601562 64.144531 188.507812 Z M 64.144531 188.507812 " clip-rule="nonzero"/></clipPath><clipPath id="4868ce4fa7"><path d="M 236 121 L 326 121 L 326 165 L 236 165 Z M 236 121 " clip-rule="nonzero"/></clipPath><clipPath id="87b24e2459"><path d="M 236.746094 121.003906 L 329.023438 132.570312 L 320.253906 202.523438 L 227.976562 190.957031 Z M 236.746094 121.003906 " clip-rule="nonzero"/></clipPath><clipPath id="6c7ed45781"><path d="M 236.746094 121.003906 L 329.023438 132.570312 L 320.253906 202.523438 L 227.976562 190.957031 Z M 236.746094 121.003906 " clip-rule="nonzero"/></clipPath><clipPath id="c130194f54"><path d="M 236.746094 121.003906 L 329.023438 132.570312 L 320.253906 202.523438 L 227.976562 190.957031 Z M 236.746094 121.003906 " clip-rule="nonzero"/></clipPath><clipPath id="92543898b1"><path d="M 284 139 L 308 139 L 308 200 L 284 200 Z M 284 139 " clip-rule="nonzero"/></clipPath><clipPath id="5399fe402c"><path d="M 236.746094 121.003906 L 329.023438 132.570312 L 320.253906 202.523438 L 227.976562 190.957031 Z M 236.746094 121.003906 " clip-rule="nonzero"/></clipPath><clipPath id="3006b405d4"><path d="M 236.746094 121.003906 L 329.023438 132.570312 L 320.253906 202.523438 L 227.976562 190.957031 Z M 236.746094 121.003906 " clip-rule="nonzero"/></clipPath><clipPath id="3c33f67a0c"><path d="M 236.746094 121.003906 L 329.023438 132.570312 L 320.253906 202.523438 L 227.976562 190.957031 Z M 236.746094 121.003906 " clip-rule="nonzero"/></clipPath></defs><path stroke-linecap="butt" transform="matrix(0.75, 0, 0, 0.75, 133.513371, 82.499995)" fill="none" stroke-linejoin="miter" d="M 73.90926 73.885429 C 84.154053 73.885429 92.91447 75.760429 100.190512 79.510429 C 107.466554 83.265638 112.966555 88.520846 116.685305 95.270847 C 120.404055 102.026056 122.26343 109.875014 122.26343 118.817723 C 122.26343 127.755224 120.404055 135.588558 116.685305 142.307308 C 112.966555 149.031267 107.466554 154.270851 100.190512 158.020851 C 92.91447 161.770851 84.154053 163.65106 73.90926 163.65106 L 46.888425 163.65106 L 46.888425 217.000021 L 18.596757 217.000021 L 18.596757 73.885429 Z M 70.185302 141.234391 C 85.914469 141.234391 93.779053 133.760433 93.779053 118.817723 C 93.779053 103.807306 85.914469 96.302097 70.185302 96.302097 L 46.888425 96.302097 L 46.888425 141.234391 Z M 70.185302 141.234391 " stroke="#ecf0f1" stroke-width="10.02445" stroke-opacity="1" stroke-miterlimit="4"/><g fill="#e67e22" fill-opacity="1"><g transform="translate(133.513371, 245.249984)"><g><path d="M 55.4375 -107.34375 C 63.113281 -107.34375 69.679688 -105.929688 75.140625 -103.109375 C 80.597656 -100.296875 84.722656 -96.359375 87.515625 -91.296875 C 90.304688 -86.234375 91.703125 -80.347656 91.703125 -73.640625 C 91.703125 -66.929688 90.304688 -61.054688 87.515625 -56.015625 C 84.722656 -50.972656 80.597656 -47.046875 75.140625 -44.234375 C 69.679688 -41.421875 63.113281 -40.015625 55.4375 -40.015625 L 35.171875 -40.015625 L 35.171875 0 L 13.953125 0 L 13.953125 -107.34375 Z M 52.640625 -56.828125 C 64.429688 -56.828125 70.328125 -62.429688 70.328125 -73.640625 C 70.328125 -84.898438 64.429688 -90.53125 52.640625 -90.53125 L 35.171875 -90.53125 L 35.171875 -56.828125 Z M 52.640625 -56.828125 "/></g></g></g><g clip-path="url(#b0de4ce6d4)"><g clip-path="url(#fba078ee45)"><path fill="#f2745a" d="M 125.84375 179.574219 L 139.320312 179.574219 L 139.320312 250.011719 L 125.84375 250.011719 Z M 125.84375 179.574219 " fill-opacity="1" fill-rule="nonzero"/></g></g><path stroke-linecap="butt" transform="matrix(0.000000001309, 0.75, -0.75, 0.000000001309, 137.453727, 179.576047)" fill="none" stroke-linejoin="miter" d="M -0.00243822 6.500803 L 93.914235 6.500803 " stroke="#c2c2c2" stroke-width="13" stroke-opacity="1" stroke-miterlimit="4"/><g clip-path="url(#ccfa2d5182)"><g clip-path="url(#5831fec9da)"><path fill="#78bc51" d="M 111.425781 186.863281 L 124.90625 186.863281 L 124.90625 250.199219 L 111.425781 250.199219 Z M 111.425781 186.863281 " fill-opacity="1" fill-rule="nonzero"/></g></g><path stroke-linecap="butt" transform="matrix(0.000000001309, 0.75, -0.75, 0.000000001309, 123.038828, 186.867293)" fill="none" stroke-linejoin="miter" d="M -0.00014005 6.499688 L 84.411324 6.499688 " stroke="#c2c2c2" stroke-width="13" stroke-opacity="1" stroke-miterlimit="4"/><g clip-path="url(#7c3932be91)"><g clip-path="url(#ab79a8d415)"><path fill="#f72b02" d="M 107.160156 239.839844 L 107.160156 250.011719 L 59.410156 250.011719 L 59.410156 239.839844 Z M 107.160156 239.839844 " fill-opacity="1" fill-rule="nonzero"/></g></g><g clip-path="url(#b1776737af)"><g clip-path="url(#576b21bd63)"><path fill="#d9d9d9" d="M 105.933594 240.898438 L 105.933594 248.945312 L 58.707031 248.945312 L 58.707031 240.898438 Z M 105.933594 240.898438 " fill-opacity="1" fill-rule="nonzero"/></g></g><g clip-path="url(#f90e734986)"><g clip-path="url(#c582a92b46)"><path fill="#7828db" d="M 47.476562 230.003906 L 47.476562 219.835938 L 95.226562 219.835938 L 95.226562 230.003906 Z M 47.476562 230.003906 " fill-opacity="1" fill-rule="nonzero"/></g></g><g clip-path="url(#3acf3c8b7c)"><g clip-path="url(#b4d7ffd1ad)"><path fill="#d9d9d9" d="M 48.707031 228.941406 L 48.707031 220.898438 L 95.933594 220.898438 L 95.933594 228.941406 Z M 48.707031 228.941406 " fill-opacity="1" fill-rule="nonzero"/></g></g><g clip-path="url(#92ef58ca9e)"><g clip-path="url(#101f15f053)"><path fill="#296613" d="M 102.722656 209.675781 L 102.722656 219.84375 L 54.972656 219.84375 L 54.972656 209.675781 Z M 102.722656 209.675781 " fill-opacity="1" fill-rule="nonzero"/></g></g><g clip-path="url(#f169715727)"><g clip-path="url(#c7e31207f8)"><path fill="#d9d9d9" d="M 101.496094 210.734375 L 101.496094 218.777344 L 54.269531 218.777344 L 54.269531 210.734375 Z M 101.496094 210.734375 " fill-opacity="1" fill-rule="nonzero"/></g></g><g clip-path="url(#4cfa8340a8)"><g clip-path="url(#45ea3271bc)"><g clip-path="url(#2946fae8a8)"><path fill="#2e48ce" d="M 94.625 210.789062 L 86.472656 204.714844 L 115 166.421875 L 123.15625 172.5 Z M 94.625 210.789062 " fill-opacity="1" fill-rule="nonzero"/></g></g></g><g clip-path="url(#4fe42217af)"><g clip-path="url(#f6012ed63d)"><g clip-path="url(#7691453440)"><path fill="#d9d9d9" d="M 94.511719 209.171875 L 88.0625 204.363281 L 116.277344 166.496094 L 122.730469 171.300781 Z M 94.511719 209.171875 " fill-opacity="1" fill-rule="nonzero"/></g></g></g><g clip-path="url(#8905f7a69f)"><g clip-path="url(#2face4ff03)"><path fill="#135766" d="M 62.960938 240.175781 L 62.960938 230.003906 L 110.710938 230.003906 L 110.710938 240.175781 Z M 62.960938 240.175781 " fill-opacity="1" fill-rule="nonzero"/></g></g><g clip-path="url(#744c56b660)"><g clip-path="url(#3a9f264700)"><path fill="#d9d9d9" d="M 64.195312 239.113281 L 64.195312 231.070312 L 111.417969 231.070312 L 111.417969 239.113281 Z M 64.195312 239.113281 " fill-opacity="1" fill-rule="nonzero"/></g></g><g clip-path="url(#1b5168cfa0)"><path fill="#dd2e44" d="M 76.917969 186.425781 C 74.523438 186.425781 74.523438 187.234375 72.128906 187.234375 C 69.734375 187.234375 69.734375 186.425781 67.339844 186.425781 C 64.144531 186.425781 60.152344 188.046875 60.152344 193.71875 C 60.152344 202.628906 64.941406 209.921875 68.136719 209.921875 C 70.53125 209.921875 70.53125 209.113281 72.128906 209.113281 C 73.726562 209.113281 73.726562 209.921875 76.121094 209.921875 C 79.316406 209.921875 84.105469 202.628906 84.105469 193.71875 C 84.105469 188.046875 80.113281 186.425781 76.917969 186.425781 Z M 76.917969 186.425781 " fill-opacity="1" fill-rule="nonzero"/></g><g clip-path="url(#3dfa98ad5a)"><path fill="#77b255" d="M 72.925781 186.425781 C 72.925781 186.425781 75.324219 183.183594 79.316406 183.183594 C 82.507812 183.183594 84.105469 184.804688 84.105469 184.804688 C 84.105469 184.804688 80.910156 187.234375 78.515625 187.234375 C 76.121094 187.234375 72.925781 186.425781 72.925781 186.425781 Z M 72.925781 186.425781 " fill-opacity="1" fill-rule="nonzero"/></g><g clip-path="url(#6491bd5f4d)"><path fill="#662113" d="M 72.128906 188.855469 C 71.6875 188.855469 71.332031 188.492188 71.332031 188.046875 C 71.332031 185.257812 72.289062 182.6875 73.960938 180.992188 C 74.273438 180.675781 74.777344 180.675781 75.089844 180.992188 C 75.402344 181.308594 75.402344 181.820312 75.089844 182.136719 C 73.714844 183.53125 72.925781 185.683594 72.925781 188.046875 C 72.925781 188.492188 72.570312 188.855469 72.128906 188.855469 Z M 72.128906 188.855469 " fill-opacity="1" fill-rule="nonzero"/></g><g clip-path="url(#a75f67771b)"><g clip-path="url(#64ae58bd1c)"><g clip-path="url(#1cca525fdd)"><path fill="#ffffff" d="M 61.277344 190.15625 L 67.011719 186.867188 L 68.957031 190.253906 L 63.222656 193.542969 Z M 61.277344 190.15625 " fill-opacity="1" fill-rule="nonzero"/></g></g></g><g clip-path="url(#4868ce4fa7)"><g clip-path="url(#87b24e2459)"><g clip-path="url(#6c7ed45781)"><g clip-path="url(#c130194f54)"><path fill="#4d4d4d" d="M 284.570312 140.613281 C 284.441406 141.109375 285.386719 141.738281 286.566406 142.011719 C 286.691406 142.027344 286.816406 142.042969 286.941406 142.058594 L 305.339844 157.90625 L 273.039062 149.515625 L 236.742188 121.011719 L 287.300781 135.140625 L 325.199219 163.078125 L 307.4375 158.492188 L 306.816406 158.347656 L 288.414062 142.050781 C 288.742188 141.964844 289.003906 141.933594 289.050781 141.558594 C 289.160156 141.1875 288.242188 140.371094 287.054688 140.15625 C 285.8125 139.875 284.703125 140.054688 284.570312 140.613281 Z M 296.363281 163.746094 C 297.152344 159.5 297.460938 157.046875 297.285156 156.386719 L 272.90625 150.074219 L 263.488281 142.632812 C 260.441406 146.53125 258.207031 150.597656 256.722656 154.816406 C 256.632812 155 256.601562 155.25 256.515625 155.429688 C 273.65625 163.457031 286.921875 166.203125 296.363281 163.746094 Z M 296.363281 163.746094 " fill-opacity="1" fill-rule="evenodd"/></g></g></g></g><g clip-path="url(#92543898b1)"><g clip-path="url(#5399fe402c)"><g clip-path="url(#3006b405d4)"><g clip-path="url(#3c33f67a0c)"><path fill="#cc9933" d="M 301.710938 185.816406 C 301.71875 185.753906 301.726562 185.691406 301.734375 185.628906 C 301.734375 185.628906 301.71875 185.753906 301.710938 185.816406 Z M 286.558594 142.074219 C 285.253906 141.785156 284.316406 141.089844 284.449219 140.535156 C 284.585938 139.976562 285.695312 139.792969 287 140.085938 C 288.304688 140.378906 289.238281 141.070312 289.105469 141.628906 C 289.074219 141.878906 288.796875 142.035156 288.40625 142.113281 L 306.824219 158.285156 L 306.445312 160.792969 C 307.460938 161.367188 307.957031 162.515625 307.742188 163.703125 C 307.476562 164.820312 306.609375 165.605469 305.5 165.785156 C 304.878906 170.242188 304.191406 174.691406 303.507812 179.144531 C 303.4375 179.710938 303.300781 180.265625 303.238281 180.769531 C 302.828125 183.53125 302.46875 185.910156 302.082031 187.972656 C 301.238281 193.167969 300.671875 196.164062 300.441406 196.964844 L 301.742188 188.121094 L 302.175781 185.171875 L 301.609375 188.167969 L 299.8125 197.910156 C 300.429688 193.515625 300.894531 190.3125 301.214844 188.246094 C 301.4375 186.996094 301.539062 186.179688 301.578125 185.863281 C 301.40625 186.738281 301.25 187.484375 301.082031 188.292969 C 300.136719 192.773438 299.570312 195.769531 299.320312 197.273438 C 299.972656 193.074219 300.40625 190.125 300.617188 188.425781 C 300.746094 187.421875 300.816406 186.855469 300.761719 186.785156 C 300.628906 187.34375 300.554688 187.910156 300.421875 188.464844 C 299.460938 193.585938 298.792969 196.886719 298.523438 198.515625 C 299.109375 193.859375 299.582031 190.597656 299.824219 188.648438 C 299.933594 187.765625 300.070312 187.207031 300.109375 186.894531 C 299.964844 187.515625 299.886719 188.144531 299.753906 188.703125 C 298.5 195.125 297.886719 198.496094 297.785156 198.804688 C 298.414062 193.773438 298.824219 190.503906 299.023438 188.929688 C 299.0625 188.617188 299.09375 188.363281 299.117188 188.175781 C 299.023438 188.417969 298.984375 188.734375 298.960938 188.921875 C 297.613281 195.589844 296.929688 199.015625 296.847656 199.132812 L 298.09375 189.195312 L 298.308594 187.5 C 298.164062 188.121094 298.09375 188.6875 298.023438 189.253906 C 296.835938 196.195312 296.101562 199.488281 295.882812 199.203125 L 297.417969 189.496094 C 299.433594 181.570312 301.867188 173.378906 303.550781 165.542969 C 302.671875 164.921875 302.167969 163.835938 302.433594 162.71875 C 302.703125 161.601562 303.566406 160.816406 304.613281 160.628906 L 305.1875 158.082031 L 287.0625 142.136719 L 287 142.128906 C 286.808594 142.105469 286.683594 142.089844 286.558594 142.074219 Z M 300.242188 186.847656 C 300.25 186.785156 300.265625 186.660156 300.28125 186.53125 C 300.28125 186.53125 300.265625 186.660156 300.242188 186.847656 Z M 299.257812 188.066406 C 299.265625 188.003906 299.28125 187.875 299.289062 187.8125 C 299.28125 187.875 299.273438 187.9375 299.257812 188.066406 Z M 299.257812 188.066406 " fill-opacity="1" fill-rule="evenodd"/></g></g></g></g><path stroke-linecap="butt" transform="matrix(6.0407, 0, 0, 6.0407, 227.172645, 114.191865)" fill="none" stroke-linejoin="miter" d="M 6.749013 22.218995 C 5.693671 22.218995 4.754728 22.088371 3.931536 21.828416 C 3.108991 21.567814 2.423536 21.225733 1.874526 20.802174 C 1.326162 20.378615 0.905836 19.91367 0.614195 19.406692 L 2.270279 17.385895 L 2.530881 17.385895 C 2.989359 18.066823 3.570702 18.608073 4.275557 19.010939 C 4.980411 19.413805 5.804896 19.614915 6.749013 19.614915 C 7.554098 19.614915 8.161954 19.444845 8.571287 19.104704 C 8.981266 18.764564 9.186256 18.295739 9.186256 17.698876 C 9.186256 17.337396 9.120297 17.035408 8.988379 16.792265 C 8.856462 16.54977 8.637246 16.3409 8.332024 16.167596 C 8.026803 15.994293 7.61359 15.844915 7.092386 15.719464 L 5.134315 15.271979 C 3.766639 14.959645 2.748157 14.44038 2.077576 13.714833 C 1.407641 12.989286 1.072673 12.046463 1.072673 10.88701 C 1.072673 10.026312 1.28801 9.269079 1.718682 8.616604 C 2.148708 7.964129 2.775317 7.457151 3.598509 7.096318 C 4.421054 6.734838 5.405263 6.554421 6.551136 6.554421 C 7.724168 6.554421 8.729717 6.708971 9.566489 7.018072 C 10.402614 7.327174 11.109408 7.800525 11.685578 8.439421 L 10.196331 10.480911 L 9.935729 10.480911 C 9.505703 10.029546 9.012306 9.691345 8.456829 9.465662 C 7.901352 9.23998 7.266337 9.126815 6.551136 9.126815 C 5.724711 9.126815 5.096162 9.272959 4.666136 9.564601 C 4.235464 9.856242 4.020128 10.258462 4.020128 10.772552 C 4.020128 11.251724 4.171445 11.63325 4.473433 11.918425 C 4.775421 12.202954 5.297918 12.425403 6.040925 12.585127 L 8.040383 13.001573 C 9.519283 13.313907 10.592084 13.843518 11.258786 14.589758 C 11.925487 15.335998 12.258514 16.309861 12.258514 17.511346 C 12.258514 18.462576 12.053525 19.290294 11.644192 19.995148 C 11.234213 20.700002 10.616657 21.246426 9.790232 21.635712 C 8.963806 22.024352 7.949851 22.218995 6.749013 22.218995 Z M 6.749013 22.218995 " stroke="#ecf0f1" stroke-width="1.066665" stroke-opacity="1" stroke-miterlimit="4"/><g fill="#e67e22" fill-opacity="1"><g transform="translate(227.172645, 247.087271)"><g><path d="M 40.765625 1.328125 C 34.390625 1.328125 28.71875 0.539062 23.75 -1.03125 C 18.78125 -2.601562 14.640625 -4.671875 11.328125 -7.234375 C 8.015625 -9.796875 5.476562 -12.609375 3.71875 -15.671875 L 13.71875 -27.875 L 15.28125 -27.875 C 18.050781 -23.757812 21.566406 -20.484375 25.828125 -18.046875 C 30.085938 -15.617188 35.066406 -14.40625 40.765625 -14.40625 C 45.628906 -14.40625 49.296875 -15.429688 51.765625 -17.484375 C 54.242188 -19.546875 55.484375 -22.378906 55.484375 -25.984375 C 55.484375 -28.160156 55.082031 -29.984375 54.28125 -31.453125 C 53.488281 -32.921875 52.171875 -34.175781 50.328125 -35.21875 C 48.484375 -36.269531 45.988281 -37.175781 42.84375 -37.9375 L 31.015625 -40.640625 C 22.753906 -42.523438 16.597656 -45.660156 12.546875 -50.046875 C 8.503906 -54.429688 6.484375 -60.125 6.484375 -67.125 C 6.484375 -72.320312 7.78125 -76.890625 10.375 -80.828125 C 12.976562 -84.773438 16.765625 -87.835938 21.734375 -90.015625 C 26.703125 -92.203125 32.648438 -93.296875 39.578125 -93.296875 C 46.660156 -93.296875 52.726562 -92.363281 57.78125 -90.5 C 62.832031 -88.632812 67.101562 -85.769531 70.59375 -81.90625 L 61.59375 -69.578125 L 60.015625 -69.578125 C 57.421875 -72.304688 54.441406 -74.351562 51.078125 -75.71875 C 47.722656 -77.082031 43.890625 -77.765625 39.578125 -77.765625 C 34.578125 -77.765625 30.773438 -76.878906 28.171875 -75.109375 C 25.578125 -73.347656 24.28125 -70.914062 24.28125 -67.8125 C 24.28125 -64.925781 25.191406 -62.617188 27.015625 -60.890625 C 28.835938 -59.171875 31.992188 -57.832031 36.484375 -56.875 L 48.5625 -54.359375 C 57.5 -52.472656 63.976562 -49.273438 68 -44.765625 C 72.03125 -40.253906 74.046875 -34.367188 74.046875 -27.109375 C 74.046875 -21.367188 72.804688 -16.367188 70.328125 -12.109375 C 67.859375 -7.847656 64.128906 -4.539062 59.140625 -2.1875 C 54.148438 0.15625 48.023438 1.328125 40.765625 1.328125 Z M 40.765625 1.328125 "/></g></g></g></svg>